<svg xmlns="http://www.w3.org/2000/svg" xmlns:xlink="http://www.w3.org/1999/xlink" width="1080" zoomAndPan="magnify" viewBox="0 0 810 809.999993" height="1080" preserveAspectRatio="xMidYMid meet" version="1.0"><path fill="#305cde" d="M 0 0 C 267.300781 0 534.601562 0 810 0 C 810 267.300781 810 534.601562 810 810 C 542.699219 810 275.398438 810 0 810 C 0 542.699219 0 275.398438 0 0 Z M 0 0 " fill-opacity="1" fill-rule="nonzero"/><path fill="#ffffff" d="M 0 0 C 267.300781 0 534.601562 0 810 0 C 810 267.300781 810 534.601562 810 810 C 542.699219 810 275.398438 810 0 810 C 0 542.699219 0 275.398438 0 0 Z M 284.785156 95.894531 C 272.773438 109.226562 262.925781 124.542969 253.914062 140.011719 C 253.570312 140.597656 253.226562 141.1875 252.875 141.792969 C 246.332031 153.011719 240.183594 164.433594 234.085938 175.898438 C 231.578125 180.617188 229.050781 185.328125 226.527344 190.042969 C 226.035156 190.960938 225.542969 191.882812 225.035156 192.828125 C 221.457031 199.507812 217.855469 206.171875 214.242188 212.828125 C 211.089844 218.640625 207.953125 224.460938 204.824219 230.285156 C 199.488281 240.207031 194.09375 250.097656 188.691406 259.980469 C 187.523438 262.113281 186.359375 264.242188 185.195312 266.375 C 184.808594 267.085938 184.421875 267.796875 184.019531 268.527344 C 181.882812 272.445312 179.761719 276.367188 177.652344 280.300781 C 172.84375 289.277344 167.96875 298.203125 162.921875 307.050781 C 159.515625 313.046875 156.25 319.117188 153.011719 325.207031 C 148.816406 333.09375 144.492188 340.894531 140.023438 348.632812 C 137.367188 353.238281 134.785156 357.886719 132.199219 362.53125 C 128.132812 369.820312 123.976562 377.050781 119.753906 384.246094 C 116.4375 389.910156 113.167969 395.601562 109.921875 401.304688 C 105.050781 409.855469 100.109375 418.359375 95.085938 426.820312 C 91.445312 432.957031 87.859375 439.125 84.269531 445.289062 C 82.421875 448.46875 80.566406 451.640625 78.703125 454.8125 C 49.425781 504.078125 49.425781 504.078125 32.433594 558.457031 C 32.257812 559.359375 32.257812 559.359375 32.078125 560.28125 C 28.597656 578.523438 28.699219 598.011719 32.433594 616.199219 C 32.667969 617.359375 32.667969 617.359375 32.90625 618.539062 C 40.714844 655.765625 58.90625 688.410156 91.003906 709.761719 C 110.035156 722.070312 131.863281 728.488281 154.246094 730.898438 C 155.210938 731.003906 156.171875 731.105469 157.164062 731.214844 C 159.886719 731.449219 162.589844 731.59375 165.320312 731.6875 C 166.1875 731.722656 166.1875 731.722656 167.074219 731.753906 C 179.03125 732.140625 190.671875 731.007812 202.5 729.316406 C 203.371094 729.191406 204.246094 729.070312 205.144531 728.941406 C 232.703125 724.921875 259.355469 717.253906 285.554688 707.957031 C 286.601562 707.589844 287.644531 707.222656 288.691406 706.855469 C 302.066406 702.132812 315.316406 697.085938 328.566406 692.03125 C 352.621094 682.855469 376.734375 674.027344 401.191406 665.984375 C 401.945312 665.738281 402.695312 665.488281 403.472656 665.230469 C 412.460938 662.265625 421.457031 659.644531 430.664062 657.429688 C 433.820312 656.667969 436.933594 655.789062 440.046875 654.863281 C 445.738281 653.207031 451.484375 652.046875 457.304688 650.957031 C 458.105469 650.804688 458.105469 650.804688 458.921875 650.648438 C 467.8125 648.964844 476.703125 647.386719 485.683594 646.257812 C 486.289062 646.179688 486.898438 646.097656 487.523438 646.011719 C 525.207031 641.105469 567.289062 643.109375 598.898438 666.28125 C 610.59375 675.40625 621.253906 685.1875 630.4375 696.882812 C 631.148438 697.777344 631.855469 698.667969 632.566406 699.5625 C 638.539062 707.097656 638.539062 707.097656 641.027344 710.550781 C 647.9375 720.101562 656.371094 728.097656 668.40625 730.105469 C 689.546875 732.117188 709.082031 722.925781 725.261719 709.886719 C 726.621094 708.726562 727.976562 707.558594 729.316406 706.375 C 729.980469 705.800781 730.644531 705.222656 731.328125 704.628906 C 733.320312 702.867188 735.28125 701.070312 737.226562 699.257812 C 737.851562 698.6875 738.472656 698.113281 739.117188 697.523438 C 764.996094 672.855469 779.914062 634.609375 780.980469 599.210938 C 781.058594 595.582031 781.078125 591.949219 781.078125 588.316406 C 781.078125 587.171875 781.078125 587.171875 781.082031 586 C 781.0625 573.257812 780.042969 561.335938 776.777344 548.964844 C 776.59375 548.253906 776.414062 547.542969 776.226562 546.808594 C 770.070312 523.210938 758.730469 501.164062 746.535156 480.1875 C 745.023438 477.574219 743.527344 474.953125 742.039062 472.328125 C 735.539062 460.890625 728.921875 449.527344 722.195312 438.222656 C 715.226562 426.492188 708.359375 414.703125 701.558594 402.875 C 699.082031 398.570312 696.597656 394.269531 694.117188 389.96875 C 693.128906 388.261719 692.144531 386.550781 691.15625 384.839844 C 689.160156 381.378906 687.160156 377.921875 685.160156 374.460938 C 676.347656 359.222656 667.6875 343.898438 659.097656 328.535156 C 656.035156 323.066406 652.957031 317.605469 649.867188 312.15625 C 640.496094 295.59375 631.335938 278.929688 622.382812 262.136719 C 620.566406 258.738281 618.734375 255.34375 616.902344 251.953125 C 611.789062 242.492188 606.75 232.996094 601.726562 223.484375 C 598.113281 216.644531 594.472656 209.820312 590.742188 203.042969 C 587.117188 196.460938 583.648438 189.800781 580.210938 183.121094 C 566.417969 156.335938 552.085938 129.550781 533.144531 105.996094 C 532.527344 105.21875 531.914062 104.441406 531.277344 103.636719 C 521.449219 91.597656 510.269531 80.171875 497.546875 71.191406 C 497.085938 70.859375 496.621094 70.527344 496.144531 70.1875 C 475.445312 55.484375 451.480469 46.25 426.355469 42.714844 C 425.332031 42.570312 424.308594 42.425781 423.253906 42.277344 C 370.265625 36.671875 320.679688 57.191406 284.785156 95.894531 Z M 284.785156 95.894531 " fill-opacity="1" fill-rule="nonzero"/><path fill="#ffffff" d="M 402.347656 236.355469 C 415.519531 235.84375 425.707031 240.832031 435.363281 249.304688 C 441.179688 255.601562 445.277344 262.703125 449.097656 270.328125 C 449.820312 271.746094 450.542969 273.160156 451.265625 274.578125 C 451.992188 276.003906 452.71875 277.433594 453.441406 278.859375 C 455.496094 282.902344 457.582031 286.925781 459.679688 290.945312 C 460.257812 292.058594 460.257812 292.058594 460.851562 293.191406 C 464.265625 299.722656 467.789062 306.191406 471.335938 312.652344 C 474.070312 317.644531 476.761719 322.660156 479.453125 327.679688 C 483.132812 334.523438 486.851562 341.339844 490.640625 348.121094 C 493.9375 354.03125 497.199219 359.960938 500.464844 365.886719 C 501.015625 366.886719 501.566406 367.882812 502.117188 368.882812 C 502.527344 369.632812 502.527344 369.632812 502.949219 370.394531 C 504.878906 373.894531 506.8125 377.386719 508.753906 380.878906 C 514.445312 391.140625 520.050781 401.441406 525.429688 411.871094 C 526.863281 414.65625 528.324219 417.421875 529.808594 420.175781 C 537.019531 433.566406 543.765625 447.929688 539.859375 463.578125 C 538.804688 466.460938 537.28125 468.949219 535.515625 471.445312 C 534.660156 472.71875 534.660156 472.71875 533.789062 474.015625 C 518.441406 489.019531 497.742188 489.300781 477.542969 491.761719 C 456.972656 494.269531 436.476562 497.085938 416.074219 500.710938 C 414.6875 500.953125 414.6875 500.953125 413.269531 501.195312 C 399.472656 503.585938 385.9375 506.75 372.371094 510.203125 C 371.195312 510.503906 371.195312 510.503906 369.996094 510.808594 C 360.796875 513.148438 351.714844 515.714844 342.679688 518.628906 C 338.289062 520.046875 333.855469 521.296875 329.410156 522.515625 C 328.160156 522.859375 328.160156 522.859375 326.886719 523.210938 C 325.226562 523.671875 323.5625 524.132812 321.898438 524.589844 C 319.765625 525.179688 317.636719 525.777344 315.507812 526.378906 C 296.527344 531.742188 278.363281 536.523438 260.097656 526.667969 C 251.992188 521.652344 245.414062 514.894531 242.839844 505.457031 C 242.429688 502.945312 242.285156 500.488281 242.25 497.945312 C 242.234375 497.363281 242.222656 496.78125 242.210938 496.183594 C 242.484375 486.4375 247.605469 477.230469 251.9375 468.726562 C 252.429688 467.757812 252.917969 466.789062 253.40625 465.820312 C 256.828125 459.078125 260.457031 452.46875 264.226562 445.914062 C 267.632812 439.984375 270.878906 433.976562 274.085938 427.9375 C 278.125 420.347656 282.265625 412.824219 286.523438 405.351562 C 290.914062 397.632812 295.125 389.820312 299.335938 382.003906 C 301.339844 378.292969 303.359375 374.589844 305.382812 370.886719 C 305.769531 370.175781 306.160156 369.460938 306.5625 368.726562 C 308.121094 365.863281 309.6875 363.003906 311.25 360.140625 C 317.042969 349.535156 322.808594 338.914062 328.5625 328.28125 C 329.832031 325.941406 331.101562 323.597656 332.371094 321.257812 C 336.945312 312.832031 341.496094 304.390625 346.019531 295.9375 C 346.519531 295.007812 347.015625 294.078125 347.511719 293.148438 C 348.011719 292.21875 348.507812 291.289062 349.007812 290.359375 C 349.253906 289.898438 349.5 289.4375 349.753906 288.960938 C 351.007812 286.621094 352.261719 284.277344 353.515625 281.933594 C 354.988281 279.1875 356.460938 276.4375 357.933594 273.691406 C 358.371094 272.875 358.804688 272.058594 359.253906 271.21875 C 367.132812 256.554688 374.550781 243.28125 391.308594 237.960938 C 395 237.035156 398.574219 236.640625 402.347656 236.355469 Z M 402.347656 236.355469 " fill-opacity="1" fill-rule="nonzero"/><path fill="#ffffff" d="M 376.523438 246.007812 C 376.785156 246.789062 377.046875 247.570312 377.3125 248.378906 C 374.964844 250.335938 374.964844 250.335938 372.566406 252.335938 C 372.046875 252.074219 371.523438 251.8125 370.984375 251.542969 C 372.8125 249.714844 374.640625 247.886719 376.523438 246.007812 Z M 376.523438 246.007812 " fill-opacity="1" fill-rule="nonzero"/></svg>